#tb 0: 1/180000
0,      64800,      64800,        0,   622080, 0x6331caee
0,      68400,      68400,        0,   622080, 0x625da883
0,      72000,      72000,        0,   622080, 0xa459e690
0,      75600,      75600,        0,   622080, 0xce5d891e
0,      79200,      79200,        0,   622080, 0x6429c648
0,      82800,      82800,        0,   622080, 0x608cc0ba
0,      86400,      86400,        0,   622080, 0xa49891ca
0,      90000,      90000,        0,   622080, 0x9721987f
0,      93600,      93600,        0,   622080, 0x2a887404
0,      97200,      97200,        0,   622080, 0x60d71d47
0,     100800,     100800,        0,   622080, 0xe8d49705
0,     104400,     104400,        0,   622080, 0x821e13cb
0,     108000,     108000,        0,   622080, 0x1b627835
0,     111600,     111600,        0,   622080, 0x1806c5f4
0,     115200,     115200,        0,   622080, 0x686858fd
0,     118800,     118800,        0,   622080, 0xab865773
0,     122400,     122400,        0,   622080, 0x2675174f
0,     126000,     126000,        0,   622080, 0x43a61a14
0,     129600,     129600,        0,   622080, 0x78470e7f
0,     133200,     133200,        0,   622080, 0xeb877bc6
0,     136800,     136800,        0,   622080, 0xffb366ec
0,     140400,     140400,        0,   622080, 0xda0906e7
0,     144000,     144000,        0,   622080, 0xd575da72
0,     147600,     147600,        0,   622080, 0x23ae25a4
0,     151200,     151200,        0,   622080, 0x5fb297f7
0,     154800,     154800,        0,   622080, 0x99b32978
0,     158400,     158400,        0,   622080, 0xbac77ca0
0,     162000,     162000,        0,   622080, 0xc1cdcbf9
0,     165600,     165600,        0,   622080, 0x3276ed72
0,     169200,     169200,        0,   622080, 0x4061f5ab
0,     172800,     172800,        0,   622080, 0x264092b2
0,     176400,     176400,        0,   622080, 0xa4e2039e
0,     180000,     180000,        0,   622080, 0x20ba1094
0,     183600,     183600,        0,   622080, 0x984e906e
0,     187200,     187200,        0,   622080, 0x76cc3139
0,     190800,     190800,        0,   622080, 0xf70e2cf6
0,     194400,     194400,        0,   622080, 0x469a4902
0,     198000,     198000,        0,   622080, 0x235312e6
0,     201600,     201600,        0,   622080, 0x0ed7b8f5
0,     205200,     205200,        0,   622080, 0xd0269cc3
0,     208800,     208800,        0,   622080, 0xdc51aeac
0,     212400,     212400,        0,   622080, 0x1aa5f76e
0,     216000,     216000,        0,   622080, 0xee06aa36
0,     219600,     219600,        0,   622080, 0xa7103230
0,     223200,     223200,        0,   622080, 0x7372405f
0,     226800,     226800,        0,   622080, 0x8d7a44b5
0,     230400,     230400,        0,   622080, 0x9e0ee776
0,     234000,     234000,        0,   622080, 0xd41e8560
0,     237600,     237600,        0,   622080, 0x39e6d8c9
0,     241200,     241200,        0,   622080, 0x7a23d70c
0,     244800,     244800,        0,   622080, 0x51d9ac9a
0,     248400,     248400,        0,   622080, 0x8eacf7f2
0,     252000,     252000,        0,   622080, 0x2b63441d
0,     255600,     255600,        0,   622080, 0x9f71b742
0,     259200,     259200,        0,   622080, 0x58afbd5e
0,     262800,     262800,        0,   622080, 0x4d645292
0,     266400,     266400,        0,   622080, 0xb972f716
0,     270000,     270000,        0,   622080, 0xbb5d01a2
0,     273600,     273600,        0,   622080, 0x6a6df129
0,     277200,     277200,        0,   622080, 0x9e45371e
0,     280800,     280800,        0,   622080, 0x28b1373d
0,     284400,     284400,        0,   622080, 0xa1cdb1f2
